<svg width="193" height="30" viewBox="0 0 193 30" fill="none" xmlns="http://www.w3.org/2000/svg">
<mask id="mask0_0_142" style="mask-type:luminance" maskUnits="userSpaceOnUse" x="0" y="0" width="34" height="30">
<path fill-rule="evenodd" clip-rule="evenodd" d="M0 0.406006H33.428V30H0V0.406006Z" fill="white"/>
</mask>
<g mask="url(#mask0_0_142)">
<path d="M33.428 1.98909C33.0351 2.02925 32.4698 2.1211 31.7324 2.26279C30.994 2.40541 30.3748 2.65187 29.8737 3.00403C29.3589 3.34234 28.9978 3.95111 28.7876 4.83081C28.5775 5.71051 28.4732 7.03006 28.4732 8.78853V19.506C28.4732 22.6593 27.4028 25.1964 25.2634 27.1178C23.1249 29.0396 20.2951 29.9996 16.775 29.9996C12.6726 29.9996 9.4979 29.0733 7.25043 27.2193C5.00297 25.3653 3.87993 22.7806 3.87993 19.4654V4.72927C3.87993 4.25573 3.78758 3.84957 3.60518 3.51126C3.42231 3.17249 3.07367 2.86879 2.55926 2.59787C2.20738 2.42248 1.77378 2.27987 1.25982 2.17187C0.745401 2.0634 0.325186 1.98909 -0.000366211 1.94802V0.406006H15.1099V1.94802C14.6762 1.97525 14.2366 2.02602 13.7896 2.10079C13.3431 2.1751 12.8887 2.28633 12.4288 2.43541C11.9148 2.59787 11.5694 2.86879 11.3935 3.24726C11.2166 3.62665 11.1293 4.05265 11.1293 4.52619V19.0597C11.1293 21.9148 11.7583 23.9917 13.0157 25.2905C14.2727 26.5897 16.0981 27.2391 18.4914 27.2391C20.8442 27.2391 22.6894 26.5224 24.0277 25.0884C25.3659 23.6534 26.0359 21.5428 26.0359 18.7551V8.99161C26.0359 7.25944 25.9168 5.96436 25.6804 5.1045C25.4435 4.24511 25.081 3.62665 24.5943 3.24726C24.2415 2.95003 23.6287 2.6791 22.7559 2.43541C21.8827 2.19171 21.2704 2.0431 20.9181 1.98909V0.406006H33.428V1.98909Z" fill="#E0311B"/>
</g>
<path d="M65.9336 1.98948C65.5545 2.02963 65.0128 2.1044 64.3082 2.2124C63.6044 2.32133 62.9686 2.58487 62.3997 3.00441C61.8991 3.36949 61.5435 3.99534 61.3339 4.88196C61.1238 5.76812 61.019 7.07059 61.019 8.78891V29.3709H57.4042L39.4513 7.10429V20.6229C39.4513 22.301 39.5635 23.5758 39.7865 24.449C40.01 25.3218 40.372 25.961 40.8726 26.3672C41.2383 26.6649 41.8206 26.9289 42.6195 27.1587C43.4179 27.3886 44.0547 27.5446 44.5285 27.6254V29.2089H32.1404V27.6254C32.6687 27.5852 33.2745 27.4869 33.958 27.3314C34.6419 27.1758 35.2135 26.9358 35.6739 26.6104C36.2022 26.2181 36.5638 25.626 36.761 24.8349C36.9567 24.0429 37.0551 22.7132 37.0551 20.8458V7.20582C37.0551 6.5292 36.9503 5.88997 36.7402 5.28766C36.5305 4.68581 36.2022 4.16842 35.7547 3.73503C35.2814 3.27487 34.7365 2.91256 34.1205 2.64902C33.5036 2.38502 32.8035 2.17871 32.019 2.02963V0.406387H42.8666L58.6228 19.8839V8.98876C58.6228 7.25752 58.5074 5.96935 58.2774 5.12427C58.0465 4.27872 57.6812 3.65287 57.1811 3.24718C56.7877 2.93656 56.2059 2.66933 55.4338 2.44594C54.6626 2.22256 54.0397 2.07071 53.5659 1.98948V0.406387H65.9336V1.98948Z" fill="#E0311B"/>
<path d="M81.5217 29.2087H65.5396V27.6256C65.9053 27.5984 66.4433 27.5583 67.154 27.5033C67.8647 27.4498 68.3551 27.369 68.6261 27.2601C69.1271 27.057 69.4689 26.7898 69.6517 26.4584C69.8341 26.127 69.9265 25.7042 69.9265 25.1896V4.76962C69.9265 4.30993 69.8378 3.90423 69.6619 3.55207C69.4864 3.20038 69.1405 2.91607 68.6261 2.69961C68.301 2.56437 67.8208 2.42545 67.184 2.28376C66.5481 2.14114 65.9995 2.04376 65.5396 1.98929V0.406204H81.5217V1.98929C81.1158 2.02945 80.6078 2.0876 79.9987 2.16145C79.3892 2.23668 78.8752 2.34099 78.455 2.47622C77.9272 2.65207 77.5749 2.92715 77.3994 3.29823C77.223 3.67115 77.1353 4.09346 77.1353 4.56701V24.9672C77.1353 25.4536 77.2267 25.8704 77.4096 26.2152C77.592 26.5599 77.9406 26.8406 78.455 27.057C78.7399 27.1793 79.21 27.2975 79.8671 27.4124C80.5233 27.5278 81.0751 27.5984 81.5217 27.6256V29.2087Z" fill="#E0311B"/>
<path fill-rule="evenodd" clip-rule="evenodd" d="M97.6992 29.2087H113.398V27.6251C112.991 27.5988 112.538 27.531 112.037 27.4221C111.536 27.3145 111.096 27.1516 110.717 26.9356C110.216 26.6384 109.83 26.3227 109.559 25.9913C109.289 25.6604 109.065 25.2911 108.889 24.8859C107.833 22.3954 106.554 19.2565 105.051 15.4677C103.548 11.6784 101.47 6.52297 98.8163 0H94.7545C92.846 4.60111 91.1032 8.80991 89.5258 12.625C87.9479 16.4415 86.3742 20.2511 84.8037 24.0533C84.5465 24.7027 84.2251 25.2643 83.839 25.7384C83.453 26.2114 82.9834 26.6102 82.4283 26.9356C82.1028 27.1387 81.6599 27.2979 81.0975 27.4128C80.5355 27.5282 80.0308 27.5988 79.5842 27.6251V29.2087H91.4034V27.6251C89.8758 27.4904 88.7833 27.2702 88.1271 26.9661C87.4709 26.6614 87.143 26.2931 87.143 25.8593C87.143 25.724 87.1666 25.4877 87.2137 25.149C87.2612 24.8111 87.4132 24.2628 87.669 23.5054C87.8708 22.9239 88.1091 22.2602 88.3847 21.5157C88.6614 20.7722 88.9139 20.1223 89.143 19.5671H99.091L101.55 25.5348C101.645 25.7651 101.702 25.9479 101.723 26.0831C101.743 26.2184 101.753 26.3402 101.753 26.4487C101.753 26.7593 101.26 27.0205 100.273 27.2301C99.2873 27.4391 98.4293 27.5711 97.6992 27.6251V29.2087ZM94.0849 7.14652L98.2552 17.5575H89.9742L94.0849 7.14652Z" fill="#E0311B"/>
<path d="M138.694 19.9734L138.126 29.2089H111.583V27.6258C112.056 27.5852 112.611 27.521 113.248 27.4329C113.884 27.3452 114.304 27.2602 114.507 27.1786C114.995 26.9898 115.333 26.7262 115.522 26.3875C115.711 26.0496 115.807 25.6162 115.807 25.0887V4.76976C115.807 4.2833 115.732 3.88037 115.583 3.56191C115.434 3.24437 115.076 2.95683 114.507 2.69975C114.087 2.51052 113.583 2.35821 112.994 2.24282C112.405 2.12836 111.935 2.04343 111.583 1.98943V0.405884H127.403V1.98943C126.969 2.03005 126.458 2.08774 125.87 2.16159C125.28 2.2359 124.769 2.34113 124.336 2.47636C123.809 2.65221 123.456 2.92636 123.279 3.29883C123.103 3.67129 123.016 4.09407 123.016 4.56761V23.5051C123.016 24.3982 123.078 25.1016 123.199 25.6162C123.321 26.1309 123.558 26.5093 123.91 26.7525C124.262 27.0106 124.752 27.1753 125.382 27.2506C126.011 27.3249 126.882 27.3618 127.991 27.3618C129.075 27.3618 130.127 27.2976 131.15 27.1693C132.172 27.0406 132.906 26.7599 133.353 26.3265C134.044 25.6365 134.751 24.6659 135.475 23.4138C136.199 22.1621 136.779 21.0156 137.212 19.9734H138.694Z" fill="#E0311B"/>
<path fill-rule="evenodd" clip-rule="evenodd" d="M176.609 29.2087H192.308V27.6251C191.901 27.5988 191.447 27.531 190.947 27.4221C190.446 27.3145 190.006 27.1516 189.627 26.9356C189.126 26.6384 188.74 26.3227 188.469 25.9913C188.199 25.6604 187.975 25.2911 187.799 24.8859C186.743 22.3954 185.464 19.2565 183.961 15.4677C182.458 11.6784 180.38 6.52297 177.726 0H173.664C171.756 4.60111 170.013 8.80991 168.435 12.625C166.858 16.4415 165.284 20.2511 163.714 24.0533C163.456 24.7027 163.135 25.2643 162.749 25.7384C162.363 26.2114 161.893 26.6102 161.338 26.9356C161.013 27.1387 160.57 27.2979 160.007 27.4128C159.445 27.5282 158.941 27.5988 158.494 27.6251V29.2087H170.313V27.6251C168.786 27.4904 167.693 27.2702 167.037 26.9661C166.381 26.6614 166.053 26.2931 166.053 25.8593C166.053 25.724 166.077 25.4877 166.124 25.149C166.171 24.8111 166.323 24.2628 166.579 23.5054C166.78 22.9239 167.019 22.2602 167.295 21.5157C167.571 20.7722 167.824 20.1223 168.053 19.5671H178.001L180.46 25.5348C180.555 25.7651 180.612 25.9479 180.633 26.0831C180.653 26.2184 180.663 26.3402 180.663 26.4487C180.663 26.7593 180.169 27.0205 179.183 27.2301C178.197 27.4391 177.339 27.5711 176.609 27.6251V29.2087ZM163.908 8.09863H162.325C161.933 6.97939 161.24 5.78954 160.246 4.52907C159.252 3.26813 158.31 2.57674 157.417 2.45536C157.011 2.40182 156.472 2.3552 155.796 2.31413C155.12 2.27305 154.498 2.2532 153.93 2.2532H149.449V13.5388H152.313C153.125 13.5388 153.828 13.4474 154.424 13.2647C155.02 13.0819 155.549 12.7542 156.009 12.2807C156.347 11.9424 156.675 11.377 156.993 10.5859C157.312 9.79387 157.504 9.11356 157.572 8.54633H159.116V20.6637H157.572C157.518 20.0544 157.308 19.3136 156.943 18.4409C156.577 17.5681 156.266 16.9898 156.009 16.705C155.616 16.2725 155.115 15.9518 154.506 15.7413C153.896 15.5313 153.165 15.4265 152.313 15.4265H149.449V24.9666C149.449 25.4545 149.541 25.8698 149.723 26.2151C149.907 26.5599 150.255 26.8405 150.769 27.0569C151.067 27.1788 151.476 27.2905 151.997 27.3925C152.519 27.4935 153.037 27.5716 153.551 27.626V29.2086H138.016V27.626C138.408 27.5859 138.929 27.5282 139.579 27.4534C140.23 27.3786 140.683 27.2877 140.94 27.1788C141.427 26.99 141.766 26.726 141.955 26.3877C142.145 26.0498 142.239 25.616 142.239 25.0889V4.76953C142.239 4.30983 142.155 3.90737 141.985 3.56213C141.817 3.21736 141.468 2.92982 140.94 2.69997C140.56 2.53751 140.06 2.38843 139.437 2.2532C138.814 2.11797 138.34 2.03028 138.016 1.98966V0.406111H163.908V8.09863ZM177.165 17.5575L172.994 7.14652L168.884 17.5575H177.165Z" fill="#E0311B"/>
</svg>
